# xmcd
#
# Track frame offsets:
#	150
#	18597
#	41063
#	64850
#	82434
#	100839
#	136784
#	164561
#
# Disc length: 2519 seconds
#
# Revision: 1
# Processed by: cddbd v1.5.1PL0 Copyright (c) Steve Scherf et al.
# Submitted via: audiograbber 1.82.02
#
DISCID=6e09d508
DTITLE=Rudy Stevenson's Traditional Allstars - On The Corner
DYEAR=1900
DGENRE=
TTITLE0=Wabash Blues
TTITLE1=All Of Me
TTITLE2=It's Only A Papermoon
TTITLE3=Hello Josephine
TTITLE4=Take The A-Train
TTITLE5=Summertime
TTITLE6=St.Louis Blues
TTITLE7=Rosetta
EXTD=
EXTT0=
EXTT1=
EXTT2=
EXTT3=
EXTT4=
EXTT5=
EXTT6=
EXTT7=
PLAYORDER=
